<?xml version="1.0" encoding="UTF-8"?>
<svg id="Layer_2" data-name="Layer 2" xmlns="http://www.w3.org/2000/svg" viewBox="0 0 537.47 125.16">
  <defs>
    <style>
      .cls-1 {
        fill: #fbf9ff;
      }
    </style>
  </defs>
  <g id="design_one" data-name="design one">
    <g id="Layer_2-2" data-name="Layer 2">
      <path class="cls-1" d="M387.39,68.13c-.83-1.04-2.4,2.28-2.63,2.74-1.67,3.18-3.76,10.84-6.4,12.89-1.42,1.1-3.28.53-4.85,1.17-1.15.47-2.68,2.47-4.45,3.14-5.64,2.13-9.27-.39-11.76-5.43-4.71,1.91-7.06,4.54-12.6,3.86-3.28-.4-4.48-3.12-7.25-4.13-4.18-1.53-6.15.15-9.48-4.43-3.76-5.17.08-9.36-3.48-13.59-2.27,3.74-3.1,8.43-5.71,12-.75,1.02-5.57,4.84-6.67,5.33-4.84,2.14-8.04.26-12.18-2.06-6.13,6.36-18.26,12.04-22.93,1.12-8.83,2.94-16.62,2.31-15.33-9.06.21-1.84,2.94-7.38.82-7.87-.18-.04-3.45.08-3.63.11-3.12.67-2.98,4.14-4.33,6.31-1.61,2.6-5.11,7.16-7.51,8.93-5.39,3.98-23.19,8.67-30,9.2-7.43.58-18.44.27-24.1-4.99-4.13,2.05-9.13,5.46-13.88,5.56-2.65.05-4.99-1.6-6.95-1.83-1.48-.17-2.74.6-3.74.51-5.6-.51-11.77-.43-12.33-7.47-1.15-1.05-4.22,4.11-5.06,4.74-5.16,3.84-13.35,2.78-17.46-2.14-6.16,4.66-12.04,4.36-15.08-3.21-3.05,4.31-10.78,10.53-16.29,9.34-1.22-.26-2.36-1.49-3.44-1.64-1.75-.24-3.96.86-6.67.36-1.71-.32-3.79-2.17-4.57-2.17-1.04,0-5.05,3.76-6.7,4.48-4.32,1.87-9.06,1.6-12.26-2.14-1.06-.02-.04,4.74-5.07,4.49l-18.31-12.72c-.97.6-.84,1.27-.97,2.2-1.9,13.21-1.42,27.73-1.9,41.13-.25,1.78-1.79,2.48-3.44,2.27-1.37-.23-2.71-2.65-3.07-3.94-2.12-7.5-.48-23.47.22-31.84.45-5.44,1.82-11.3,2.17-16.81-7.8-9.43-18.47-14.03-28.94-19.69-.96-.52-3.66-1.39-4.36-1.71C2.56,50.12.22,51.37,0,46.8c-.1-2.02,4.92-2.55,6.53-2.77,12.36,2.09,25.11,1.32,37.65,1.04,2.16-15.03,4.56-29.07,10.76-43.02.93-1.43,4.99-2.89,6.11-1.49,3.13,3.92-.87,19.58-1.12,24.84l1.89,18.04,30.74-1.18c10.62,1.13,21.26.13,31.8,1.76,3.02-9.78,4.19-20.07,7.15-29.86.35-1.14,1.23-1.89,1.55-2.88,1.16-3.6-.08-7.35,4.67-8.66,4.44-1.22,3.92,5.5,3.72,8.21-.79,11.02-4.47,21.93-6.94,32.6h27.5c2.77-4.32,3.64-9.89,5.53-14.71,2.03-5.17,5.06-12.98,7.59-17.72.3-.57,2.32-3.99,2.52-4.13,1.59-1.11,5.27-1.65,6.05.92,1.49,4.87-2.17,10.09-3.35,14.76-.68,2.7-.65,5.28-1.23,7.62-.72,2.88-3.57,9.54-3.54,11.67.02,1.46.04.74.98.94,5.87,1.23,10.83-.42,16.53-.56,3.17-.08,6.26.04,9.43-.06s7.11.67,10.13-.56c2.42-1.96,2.29-24.59,5.5-28.34,2.76-1.46,7.14-1.08,7.45,2.64.11,4.07-5.75,23.47-4.2,25.68,3.21,1.58,7.51.13,10.79.08,31.62-.47,64.26-.87,96.06-.73,16.23.07,32.46-.36,48.6.63,1.38-.33,1.59-7.1,1.85-8.4,1.26-6.16,2.49-8.89,5.09-14.42.52-1.1-.9-2.73,2.73-2.95,7.22-.44,7.55,12.11,7.21,17.22-.2,3-1.77,5.97-1.3,9.15,6.8-.3,13.77.4,20.55,0,22.7-1.33,45.53-1.71,68.26-.63,2.67.13,8.52,1.55,10.72,1.28,2.57-.32,4.02-8.04,5.3-10.57,2.13-4.22,8.98-12.17,12.75-5.6l-6.32,16.78,30.07.94c5.91,2.77,4.36,7.26-1.94,7.92-7.87.82-20.07-1.68-28.44-1.94-1.07-.03-2.34-.19-3.18.66-.62.63-5.78,14.59-6.3,16.48-.48,1.78-3.01,14.66-2.8,15.41.33,1.18,1.72,1.19,2.66.93,1.95-.55,1.88-4.14,5.68-3.57,6.72,1.01-2.53,14.09-8.09,14.47-4,.27-5.09-2.82-6.94-5.73-6.01,6.85-12.86,7.65-16.74-1.64-.92-.61-4.61,2.69-8.03-.46-.85-.78-.96-2.25-1.83-3.01-2.23-.25-4.97,6.92-10.44,5.47-1.5-.4-4.2-4.36-5.31-5.46-.49-.49-1.55-.4-2.25-1.06-2.3-2.16-1.92-6.15-1.87-9.04-1.17-1.45-2.76,4.33-3.05,4.86-3.77,6.98-5.95,6.23-8.65-1.05-1.83-.01-4.26,19.25-10.34,11.61-3.29-4.14.6-18.23-.06-23.99-.11-.95-.05-1.57-.98-2.17-1.06.02-4.66,6.89-5.08,8.19s-.09,2.78-.45,3.98c-1.48,4.95-2.41,13.33-8.98,13.15-1.01-.03-6.74-.74-7.29-.98-1.75-.78-5.7-6.34-5.7-8.22v-11.07ZM54.89,44.08c.24-.23-.46-6.12-1.89-6.32l-.64,6.33h2.52ZM335.63,73.74c1.09.23,2.63.36,3.4-.55,1.41-1.66,2.85-8.31,5.1-11.35,4.98-6.73,12.2-7.91,19.7-9.4,9.78-1.94,2.24,10.57,1.24,14.54-.61,2.41-3.03,15.39,1.46,14.1,2.76-.8,6.33-6.16,6.8-8.99.91-5.51.73-12.84,1.48-18.77.21-1.69,2.24-5.32.15-5.98l-121.58-.09,4.71,2.55.98,7.57c3.25.19,16.09-4.58,15.06,2.07-1.57,3.77-4.68,10.38-4.7,14.35s7.04-1.29,8.28-2.5c3.77-3.68,9.53-15.67,13.23-17.13,7.41-2.92,11.34,3.63,16.85,6.79,1.22,1.9.27,6.33-.35,8.45-.4,1.35-3.1,3.67-.34,5.42,3.17,2.01,8.96-10.57,7.95-12.4-.41-.75-1.66-.95-2.27-1.73-3.58-4.57,4.87-9.74,9.99-7.3,1.25.6,1.49,2.26,2.46,2.6,2.63.92,9.52-1.13,11.65,1.62s-4.87,11.77-1.24,16.11ZM250.21,47.25l-29.71.63-.63,11.39c4.75-2.08,7.61-5.77,13.07-3.27s8.55,7.59,7.73,13.66c-.25,1.84-1.28,3.07-1.71,4.61-1.02,3.68,4.16-1.16,4.92-2.04,1.16-1.35,5.02-7.13,4.15-8.52-5.51-3.21-6.65-5.18-3.13-10.71l5.31-5.75ZM491.06,49.78c-24.1-1.88-48.2-1.85-72.41-1.88-4.66,0-9.16-.12-13.85,0-2.42.06-13.68-.59-14.58.59l-1.57,6.34c12.36-1.73,5.97,12.61,6.37,19.86l4.07,2.15c1.45-.04,3.98-8.84,4.91-10.74,2.88-5.89,11.65-15.74,18.18-9.07,2.06,2.1.31,4.77,2.19,6.66,2.12-1.69,3-4.66,5.64-5.73,4.59-1.84,4.71,1.33,6.37,1.34s2.88-4.03,7.14-2.79c3.94,1.15,3.28,5.71,3.3,9.09,5.21-5.16,11.39-10.55,19.1-6.79,6.11,2.98-.98,13.48-1.3,18-.05.78.2.96.81,1.35l2.94-.92c2.89-9.13,8.91-17.97,19.56-17.62l3.13-9.84ZM212.29,47.87l-40.33,1.4c-2.47,11.13-13.24,18.34-8.71,30.92.65.97,5.73.93,6.41,0,.49-1.36-.41-2.44-.25-3.96.8-7.38,11.78-17.64,19.16-17.58,1.87.02,4.11,1.43,5.68,1.26s2.32-2.41,5.08-2.58c9.04-.56.42,10.57-.18,13.8-.25,1.34-.44,4.95-.06,6.09.74,2.21,8.63,2.73,10.52-.69,3.6-6.52,1.71-21.03,2.67-28.66ZM121.87,49.8c-19.33-2.48-38.77-.69-58.13.29l-1.15,1.4,3.68,26.13c.74.85,2.74-2.47,3.05-2.96,3.71-5.96,4.55-8.82,10.91-13.12,4.59-3.1,3.83-2.06,8.47-2.27,2.15-.1,4.29-1.49,6.49.15,2.73,2.72-2.1,15.12-1.68,19.06l3.09,1.05c.46-11.02,12.69-20.9,23.37-20.28l1.9-9.44ZM159.82,49.14h-10.11c-.11,0,.05,1.31-.6,2.22-.58.8-2.57,2.8-3.54,2.88-3.11-.36-3.91-2.18-4.14-5.03l-8.79.21c-4.27,8.85-9.63,18.72-6.63,28.83,1.48,2.06,5.37-2.54,6.24-3.86,3.63-5.49,3.48-20.01,13.41-17.06,2.29,1.67-2.55,8.82-3.38,11.27-.78,2.29-2.45,9.1-1.14,10.96,3.02,4.3,12.55-6.65,13.57-9.28.9-2.32.43-3.93.98-5.98s4.78-14.52,4.14-15.15ZM54.8,51.13l-4.41.28-4.35,20.19,3.5,4.1,10.41,6.98-5.14-31.55ZM18.86,51.67c6.53,4.91,14.57,7.4,19.92,13.92.83.18,1.17-.46,1.44-1.08.25-.57,2.41-10.85,2.41-11.54,0-.75-.07-.83-.7-1.3h-23.07ZM285.62,78.88c5.93,1.54,15.78-14.18,10.75-16.79h-1.93c-2.75,5.67-9.09,9.95-8.82,16.79ZM357.67,62.44c-7.09.51-10.85,9.53-11.38,15.82,5.79,2.9,13.25-13.93,11.38-15.82ZM227.91,63.79c-2.26.63-9.64,11.32-9.69,13.79-.06,2.93,7.32-.36,8.82-1.33,2.27-1.48,6.13-6.81,5.38-9.56-.38-1.4-2.89-3.36-4.51-2.9ZM459.45,66.23c-2.51,0-4.72,2.35-6.3,4.13-1.02,1.15-5.16,6.27-3.19,7.6,6.03,1.22,8.12-7.27,9.49-11.73ZM87.12,66.87c-6.01,2.44-9.66,8.52-11.91,14.35l.89,1.46c6.95-2.01,10.7-8.73,11.02-15.81ZM191.43,67.5c-4.9-3.19-13.97,5.36-13.94,9.78.06,6.94,10.31,1.11,11.73-2.2.92-2.16,1.06-5.3,2.21-7.59ZM115.57,68.13c-5.4,1.7-11.57,5.54-10.74,12.02.75.79,4.56-1.81,5.31-2.59.93-.96,6.19-8.62,5.43-9.43ZM479.54,81.91c1.49-.84,5.08-9.68,5.16-11.65.15-3.71-2.6-1.17-4.02.45-2.54,2.87-4.45,7.47-4.16,11.34.92-.1,2.25.29,3.03-.14Z"/>
    </g>
  </g>
</svg>